<svg width="94" height="94" viewBox="0 0 94 94" fill="none" xmlns="http://www.w3.org/2000/svg">
<rect x="77.0056" y="32.2664" width="21.3333" height="21.3333" transform="rotate(45 77.0056 32.2664)" fill="#111827"/>
<rect x="62.3399" y="47.7704" width="21.3333" height="21.3333" transform="rotate(45 62.3399 47.7704)" fill="#FDE047"/>
<rect x="46.8358" y="62.4362" width="21.3333" height="21.3333" transform="rotate(45 46.8358 62.4362)" fill="#111827"/>
<rect x="47.2548" y="2.51556" width="21.3333" height="21.3333" transform="rotate(45 47.2548 2.51556)" fill="#111827"/>
<rect x="62.3396" y="17.6004" width="21.3333" height="21.3333" transform="rotate(45 62.3396 17.6004)" fill="#FDE047"/>
<rect x="32.17" y="17.6004" width="21.3333" height="21.3333" transform="rotate(45 32.17 17.6004)" fill="#FDE047"/>
<rect x="32.1698" y="47.7702" width="21.3333" height="21.3333" transform="rotate(45 32.1698 47.7702)" fill="#FDE047"/>
<rect x="47.2548" y="32.6853" width="21.3333" height="21.3333" transform="rotate(45 47.2548 32.6853)" fill="#111827"/>
<rect x="17.085" y="32.6854" width="21.3333" height="21.3333" transform="rotate(45 17.085 32.6854)" fill="#111827"/>
<rect x="47.2548" y="1.29289" width="65" height="65" transform="rotate(45 47.2548 1.29289)" stroke="white"/>
</svg>
