<?xml version="1.0" encoding="utf-8"?>
<!-- Generator: Adobe Illustrator 27.5.0, SVG Export Plug-In . SVG Version: 6.00 Build 0)  -->
<svg version="1.1" xmlns="http://www.w3.org/2000/svg" xmlns:xlink="http://www.w3.org/1999/xlink" x="0px" y="0px"
	 viewBox="0 0 750 500" style="enable-background:new 0 0 750 500;" xml:space="preserve">
<g id="BACKGROUND">
	<g>
		<rect style="fill:#D7DBF9;" width="750" height="500"/>
	</g>
	<g>
		<g>
			<g>
				<polygon style="fill:#A0A5FF;" points="421.357,261.541 421.357,288.338 403.034,288.338 403.034,171.586 378.791,171.586 
					378.791,162.63 353.039,162.63 353.039,224.055 340.265,224.055 340.265,259.86 332.77,259.86 332.77,131.762 295.859,131.762 
					295.859,249.106 288.267,244.919 288.267,212.636 242.922,212.636 242.922,249.106 233.91,244.136 233.91,182.609 
					208.973,182.609 208.973,275.368 189.07,275.368 189.07,249.106 160.766,249.106 160.766,290.37 155.641,287.544 
					155.641,210.462 129.928,196.283 129.928,304.713 114.748,304.713 114.748,251.684 86.203,267.425 86.203,322.5 63.18,329.9 
					63.18,353.161 424.771,353.161 424.771,261.541 				"/>
				<polygon style="fill:#888CEF;" points="750,117.094 708.097,117.094 708.097,237.865 683.982,237.865 683.982,88.099 
					662.291,107.336 662.291,206.13 644.936,206.13 644.936,156.142 588.372,156.142 588.372,73.16 551.542,40.498 551.542,139.928 
					539.289,139.928 539.289,211.553 530.515,211.553 530.515,100.792 505.778,100.792 505.778,286.33 489.582,286.33 
					489.582,119.75 481.708,119.75 481.708,112.635 476.294,112.635 476.294,106.485 464.975,106.485 464.975,112.635 
					456.608,112.635 456.608,119.75 449.226,119.75 449.226,226.839 441.844,226.839 441.844,147.26 416.744,147.26 
					416.744,259.648 399.026,259.648 399.026,243.235 361.591,243.235 361.591,390.579 750,390.579 				"/>
				<g>
					<rect x="469.524" y="53.5" style="fill:#888CEF;" width="3" height="57.508"/>
				</g>
				<polygon style="fill:#5F65CE;" points="361.591,353.116 0,353.116 0,500 361.591,500 750,500 750,353.116 				"/>
			</g>
		</g>
	</g>
</g>
<g id="OBJECTS">
	<g>
		<g>
			<g>
				<path style="fill:#FFFFFF;" d="M117.937,95.717c1.947-4.062,3.038-8.612,3.038-13.417c0-17.167-13.916-31.083-31.083-31.083
					c-17.167,0-31.083,13.917-31.083,31.083c0,4.805,1.092,9.355,3.038,13.417H117.937z"/>
				<path style="fill:#FFFFFF;" d="M142.883,95.717c1.138-2.468,1.79-5.206,1.79-8.102c0-10.713-8.685-19.398-19.398-19.398
					c-10.713,0-19.398,8.685-19.398,19.398c0,2.896,0.652,5.634,1.79,8.102H142.883z"/>
				<path style="fill:#FFFFFF;" d="M70.733,95.717c1.214-2.319,1.909-4.952,1.909-7.75c0-9.251-7.499-16.75-16.75-16.75
					c-9.251,0-16.75,7.499-16.75,16.75c0,2.798,0.695,5.431,1.909,7.75H70.733z"/>
				<path style="fill:#FFFFFF;" d="M43.258,95.717c0.662-1.281,1.042-2.732,1.042-4.273c0-5.152-4.177-9.329-9.329-9.329
					c-5.152,0-9.329,4.177-9.329,9.329c0,1.541,0.38,2.992,1.042,4.273H43.258z"/>
			</g>
		</g>
		<g>
			<g>
				<path style="fill:#FFFFFF;" d="M163.557,156.727c1.364-2.846,2.129-6.034,2.129-9.401c0-12.029-9.751-21.78-21.78-21.78
					s-21.78,9.751-21.78,21.78c0,3.367,0.765,6.555,2.129,9.401H163.557z"/>
				<path style="fill:#FFFFFF;" d="M181.036,156.727c0.797-1.729,1.254-3.648,1.254-5.677c0-7.507-6.085-13.592-13.592-13.592
					c-7.507,0-13.592,6.085-13.592,13.592c0,2.029,0.457,3.948,1.254,5.677H181.036z"/>
				<path style="fill:#FFFFFF;" d="M130.481,156.727c0.85-1.625,1.337-3.469,1.337-5.43c0-6.482-5.255-11.737-11.737-11.737
					c-6.482,0-11.737,5.255-11.737,11.737c0,1.961,0.487,3.806,1.338,5.43H130.481z"/>
				<path style="fill:#FFFFFF;" d="M111.229,156.727c0.464-0.898,0.73-1.914,0.73-2.994c0-3.61-2.927-6.537-6.537-6.537
					c-3.61,0-6.537,2.927-6.537,6.537c0,1.08,0.266,2.096,0.73,2.994H111.229z"/>
			</g>
		</g>
		<g>
			<g>
				<path style="fill:#FFFFFF;" d="M364.226,108.437c2.911-6.075,4.544-12.88,4.544-20.066c0-25.675-20.814-46.488-46.488-46.488
					c-25.675,0-46.488,20.814-46.488,46.488c0,7.187,1.633,13.991,4.544,20.066H364.226z"/>
				<path style="fill:#FFFFFF;" d="M401.535,108.437c1.702-3.691,2.677-7.786,2.677-12.117c0-16.023-12.989-29.012-29.012-29.012
					c-16.023,0-29.012,12.989-29.012,29.012c0,4.331,0.975,8.426,2.677,12.117H401.535z"/>
				<path style="fill:#FFFFFF;" d="M293.628,108.437c1.815-3.468,2.855-7.406,2.855-11.591c0-13.836-11.216-25.051-25.051-25.051
					c-13.835,0-25.051,11.216-25.051,25.051c0,4.185,1.04,8.123,2.855,11.591H293.628z"/>
				<path style="fill:#FFFFFF;" d="M252.535,108.437c0.99-1.916,1.559-4.085,1.559-6.391c0-7.706-6.247-13.952-13.952-13.952
					c-7.706,0-13.952,6.247-13.952,13.952c0,2.305,0.569,4.475,1.559,6.391H252.535z"/>
			</g>
		</g>
		<g>
			<g>
				<path style="fill:#FFFFFF;" d="M644.083,73.437c1.744-3.64,2.722-7.716,2.722-12.022c0-15.382-12.47-27.852-27.852-27.852
					c-15.382,0-27.852,12.47-27.852,27.852c0,4.306,0.978,8.382,2.722,12.022H644.083z"/>
				<path style="fill:#FFFFFF;" d="M666.435,73.437c1.02-2.212,1.604-4.665,1.604-7.26c0-9.599-7.782-17.382-17.382-17.382
					s-17.382,7.782-17.382,17.382c0,2.595,0.584,5.048,1.604,7.26H666.435z"/>
				<path style="fill:#FFFFFF;" d="M601.786,73.437c1.087-2.078,1.71-4.437,1.71-6.944c0-8.289-6.72-15.009-15.009-15.009
					c-8.289,0-15.009,6.72-15.009,15.009c0,2.507,0.623,4.867,1.711,6.944H601.786z"/>
				<path style="fill:#FFFFFF;" d="M577.166,73.437c0.593-1.148,0.934-2.448,0.934-3.829c0-4.617-3.743-8.359-8.359-8.359
					c-4.617,0-8.359,3.743-8.359,8.359c0,1.381,0.341,2.681,0.934,3.829H577.166z"/>
			</g>
		</g>
		<g>
			<g>
				<path style="fill:#D65151;" d="M218.278,112.84c0,24.414,44.197,82.041,44.197,82.041s44.197-57.627,44.197-82.041
					c0-24.406-19.787-44.197-44.197-44.197C238.067,68.643,218.278,88.434,218.278,112.84z"/>
				<path style="fill:#FFFFFF;" d="M236.81,111.445c0,14.176,11.491,25.668,25.666,25.668c14.176,0,25.666-11.492,25.666-25.668
					c0-14.173-11.49-25.665-25.666-25.665C248.301,85.78,236.81,97.271,236.81,111.445z"/>
			</g>
		</g>
		<g>
			<g>
				<path style="fill:#535EC1;" d="M701.334,419.235c0.058,6.356-120.941,12.618-270.26,13.987
					c-149.319,1.369-270.413-2.674-270.471-9.03c-0.058-6.356,120.941-12.618,270.26-13.987
					C580.182,408.837,701.276,412.879,701.334,419.235z"/>
				<path style="fill:#535EC1;" d="M687.112,400.539c0.041,4.508-49.2,8.614-109.984,9.171
					c-60.784,0.557-110.092-2.645-110.134-7.153c-0.041-4.508,49.2-8.614,109.984-9.171
					C637.763,392.828,687.071,396.031,687.112,400.539z"/>
				<g>
					<g>
						<g>
							<path style="fill:#FFFFFF;" d="M670.617,380.042c0,12.249-9.932,22.185-22.183,22.185H517.5
								c-12.251,0-22.181-9.936-22.181-22.185V104.883c0-12.249,9.93-22.181,22.181-22.181h130.933
								c12.251,0,22.183,9.932,22.183,22.181V380.042z"/>
							<path style="fill:#676BCE;" d="M648.434,403.263H517.5c-12.806,0-23.222-10.416-23.222-23.221V104.883
								c0-12.803,10.416-23.222,23.222-23.222h130.933c12.807,0,23.223,10.418,23.223,23.222v275.159
								C671.657,392.846,661.241,403.263,648.434,403.263z M517.5,83.739c-11.66,0-21.143,9.486-21.143,21.143v275.159
								c0,11.657,9.483,21.14,21.143,21.14h130.933c11.66,0,21.143-9.483,21.143-21.14V104.883c0-11.657-9.483-21.143-21.143-21.143
								H517.5z"/>
						</g>
						<path style="fill:#EBECFF;" d="M610.15,98.485c0.122,0.475,0.192,0.969,0.192,1.478c0,3.301-2.674,5.976-5.975,5.976h-42.801
							c-3.297,0-5.973-2.676-5.973-5.976c0-0.509,0.07-1.003,0.189-1.478H506.04v264.758h153.853V98.485H610.15z"/>
					</g>
					<g>
						<path style="fill:#FFFFFF;" d="M609.029,156.074c0,14.394-11.668,26.062-26.062,26.062c-14.394,0-26.062-11.668-26.062-26.062
							c0-14.392,11.668-26.061,26.062-26.061C597.361,130.013,609.029,141.682,609.029,156.074z"/>
						<g>
							<g>
								<g>
									<g>
										<g>
											<path style="fill:#237EC1;" d="M595.76,151.734c0.105,0.004,0.696-1.849,0.944-1.997c0.25-0.151,1.859,0,2.288,0
												c0.431,0,0.205,1.512,0.115,1.997c-0.092,0.485-1.408,0.609-2.222,0.657C596.068,152.441,595.76,151.734,595.76,151.734z
												"/>
										</g>
										<path style="fill:#4C52B5;" d="M595.76,151.734c0.105,0.004,0.696-1.849,0.944-1.997c0.25-0.151,1.519,0.12,1.938,0.233
											c0.547,0.145,0.307,1.398,0.218,1.882c-0.092,0.484-1.16,0.491-1.974,0.54C596.068,152.441,595.76,151.734,595.76,151.734
											z"/>
									</g>
									<g>
										<g>
											<path style="fill:#237EC1;" d="M570.171,151.734c-0.105,0.004-0.694-1.849-0.944-1.997c-0.249-0.151-1.859,0-2.288,0
												c-0.43,0-0.205,1.512-0.114,1.997c0.091,0.485,1.406,0.609,2.219,0.657C569.861,152.441,570.171,151.734,570.171,151.734
												z"/>
										</g>
										<path style="fill:#4C52B5;" d="M570.171,151.734c-0.105,0.004-0.694-1.849-0.944-1.997
											c-0.249-0.151-1.519,0.12-1.939,0.233c-0.546,0.145-0.309,1.398-0.217,1.882c0.09,0.484,1.159,0.491,1.973,0.54
											C569.861,152.441,570.171,151.734,570.171,151.734z"/>
									</g>
								</g>
							</g>
							<path style="fill:#4C52B5;" d="M592.142,145.106c-1.267-0.7-7.073-0.832-7.957-0.832c-0.504,0-0.873,0-1.094,0
								c-0.166,0-0.25,0-0.25,0c-0.224,0-0.588,0-1.096,0c-0.882,0-6.687,0.133-7.954,0.832c-0.577,0.351-3.152,4.775-4.075,6.745
								c6.466,0,11.918,0,13.125,0c0,0,0.086,0,0.25,0c1.209,0,6.661,0,13.125,0C595.295,149.881,592.716,145.457,592.142,145.106z"
								/>
							<path style="fill:#237EC1;" d="M573.778,163.063v-7.183l18.266-0.218c0,0,0.243,4.292,0,5.868
								c-0.086,1.094-0.816,1.533-2.431,1.533C587.997,163.063,573.778,163.063,573.778,163.063z"/>
							<g>
								<path style="fill:#444BA8;" d="M600.409,167.16c0,0.393-0.278,0.715-0.628,0.715h-3.852c-0.346,0-0.626-0.322-0.626-0.715
									v-4.496c0-0.393,0.28-0.713,0.626-0.713h3.852c0.35,0,0.628,0.32,0.628,0.713V167.16z"/>
								<path style="fill:#444BA8;" d="M565.523,167.16c0,0.393,0.28,0.715,0.627,0.715h3.852c0.347,0,0.628-0.322,0.628-0.715
									v-4.496c0-0.393-0.281-0.713-0.628-0.713h-3.852c-0.347,0-0.627,0.32-0.627,0.713V167.16z"/>
							</g>
							<path style="fill:#237EC1;" d="M592.155,163.063v-7.183l-18.269-0.218c0,0-0.242,4.292,0,5.868
								c0.09,1.094,0.818,1.533,2.434,1.533C577.934,163.063,592.155,163.063,592.155,163.063z"/>
							<path style="fill:#444BA8;" d="M601.11,155.662l-18.143,0.218l-18.145-0.218c0,0-0.244,4.292,0,5.868
								c0.091,1.094,0.819,1.533,2.432,1.533c1.49,0,13.683,0,15.587,0c0,0,0.089,0,0.25,0c1.904,0,14.097,0,15.586,0
								c1.613,0,2.344-0.439,2.433-1.533C601.351,159.954,601.11,155.662,601.11,155.662z"/>
							<path style="fill:#4C52B5;" d="M601.217,160.245c-0.137,0.555-0.517,0.863-2.722,0.863c-2.025,0-13.56,0-15.404,0
								c-0.161,0-0.25,0-0.25,0c-1.847,0-13.38,0-15.406,0c-2.204,0-2.586-0.308-2.721-0.863c0,0.876-0.378,4.668,4.079,4.668
								c4.038,0,12.49,0,14.047,0c0,0,0.089,0,0.25,0c1.56,0,10.008,0,14.046,0C601.597,164.913,601.217,161.121,601.217,160.245z"
								/>
							<path style="fill:#FFFFFF;" d="M595.662,151.348c-0.718-1.525-2.882-5.475-3.775-5.891c-1.19-0.595-6.958-0.701-7.788-0.701
								c-0.461,0-0.802,0-1.009,0c-0.166,0-0.25,0-0.25,0c-0.209,0-0.547,0-1.01,0c-0.828,0-6.598,0.106-7.785,0.701
								c-0.896,0.416-3.062,4.365-3.781,5.891c6.303,0,11.823-0.129,12.702-0.151C583.844,151.219,589.365,151.348,595.662,151.348z
								"/>
							<path style="fill:#4C52B5;" d="M596.049,151.508c-3.687-0.177-9.929-0.472-12.959-0.488v-0.001c-0.039,0-0.084,0-0.124,0
								c-0.042,0-0.087,0-0.126,0v0.001c-3.027,0.016-9.271,0.311-12.959,0.488c-1.834,1.321-4.753,3.102-5.061,4.154
								c0.268,0.394,5.51,0.571,10.236,0.571c3.968,0,6.93,0,7.783,0c0,0,0.086,0,0.25,0c0.85,0,3.815,0,7.784,0
								c4.726,0,9.964-0.177,10.235-0.571C600.802,154.61,597.882,152.829,596.049,151.508z"/>
							<g>
								<g>
									<path style="fill:#FFFFFF;" d="M597.254,156.234c-1.17,0.027-1.749,0.022-2.07,0.528c-0.318,0.506-0.617,2.959-0.617,2.959
										s2.878,0.192,4.83,0.023l0.024-3.635C598.696,156.18,597.869,156.222,597.254,156.234z"/>
									<path style="fill:#FFFFFF;" d="M601.12,155.838L601.12,155.838c-0.263,0.114-0.842,0.202-1.5,0.269l-0.019,3.635
										c0.737-0.066,1.344-0.182,1.615-0.379C601.219,157.924,601.146,156.354,601.12,155.838z"/>
								</g>
								<g>
									<path style="fill:#FFFFFF;" d="M568.677,156.234c1.173,0.027,1.751,0.022,2.07,0.528c0.319,0.506,0.618,2.959,0.618,2.959
										s-2.878,0.192-4.834,0.023l-0.022-3.635C567.237,156.18,568.062,156.222,568.677,156.234z"/>
									<path style="fill:#FFFFFF;" d="M564.811,155.838L564.811,155.838c0.262,0.114,0.838,0.202,1.497,0.269l0.022,3.635
										c-0.737-0.066-1.346-0.182-1.616-0.379C564.713,157.924,564.786,156.354,564.811,155.838z"/>
								</g>
							</g>
							<path style="fill:#4C52B5;" d="M590.847,158.684c0,0.984-0.701,1.781-1.566,1.781h-12.63c-0.865,0-1.565-0.797-1.565-1.781
								l0,0c0-0.983,0.7-1.781,1.565-1.781h12.63C590.146,156.902,590.847,157.701,590.847,158.684L590.847,158.684z"/>
							<path style="fill:#4C52B5;" d="M566.945,163.034c0.033,0.522,0.414,0.934,0.882,0.934h30.277c0.47,0,0.85-0.411,0.882-0.934
								H566.945z"/>
						</g>
					</g>
					<g>
						<g>
							<path style="fill:#FFFFFF;" d="M578.898,309.498v-12.09c-6.943-0.122-14.127-2.275-18.316-5.269l2.873-8.02
								c4.31,2.873,10.535,5.148,17.239,5.148c8.501,0,14.245-4.909,14.245-11.732c0-6.585-4.668-10.656-13.527-14.248
								c-12.213-4.788-19.755-10.296-19.755-20.712c0-9.936,7.063-17.479,18.079-19.274v-12.092h7.42v11.613
								c7.184,0.239,12.093,2.155,15.565,4.191l-2.995,7.901c-2.51-1.437-7.421-4.071-15.082-4.071
								c-9.219,0-12.69,5.506-12.69,10.297c0,6.224,4.431,9.336,14.844,13.648c12.332,5.028,18.557,11.253,18.557,21.907
								c0,9.458-6.582,18.317-18.916,20.354v12.449H578.898z"/>
						</g>
						<g>
							<path style="fill:#FFFFFF;" d="M582.967,316.529c-30.974,0-56.175-25.2-56.175-56.175c0-30.974,25.2-56.174,56.175-56.174
								c30.975,0,56.174,25.2,56.174,56.174C639.141,291.329,613.942,316.529,582.967,316.529z M582.967,206.469
								c-29.712,0-53.883,24.173-53.883,53.886c0,29.712,24.172,53.886,53.883,53.886c29.711,0,53.887-24.174,53.887-53.886
								C636.853,230.642,612.677,206.469,582.967,206.469z"/>
						</g>
					</g>
				</g>
				<g>
					<g>
						<path style="fill:#2F2F6B;" d="M516.794,393.323l97.14-7.66c0,0-11.838-47.003-50.833-49.44
							C524.106,333.786,513.661,379.048,516.794,393.323z"/>
						<path style="fill:#2F2F6B;" d="M205.878,397.153h98.706c0,0-2.785-35.774-28.028-48.309
							c-25.242-12.534-58.144-7.573-64.934,11.49C204.834,379.396,205.878,397.153,205.878,397.153z"/>
						<path style="fill:#2F2F6B;" d="M268.06,314.871c0,0,69.426-37.184,98.391-44.18c3.067,2.687,3.937,5.559,3.937,5.559
							l-91.134,38.621H268.06z"/>
						<polygon style="fill:#FFB727;" points="439.624,262.624 448.291,233.29 456.291,233.29 459.992,260.159 						"/>
						<path style="fill:#FFDA00;" d="M660.241,335.178l1.741-38.299l-46.655-1.393c0,0-38.995-13.23-71.027-24.139
							c-32.032-10.909-95.747-12.592-122.556-10.852c-26.809,1.741-60.582,11.664-60.582,11.664s4.526,0.174,8.356,1.219
							c-27.505,8.182-88.087,39.343-88.087,39.343l-5.571,1.044c0,0-40.214,5.571-68.938,10.793
							c-28.724,5.223-44.914,17.582-46.307,22.109c-1.393,4.526-4.526,52.225-4.526,52.225l53.618,8.704l0.513-0.015
							c-0.783-3.43-1.21-7.004-1.21-10.682c0-25.526,19.953-46.219,44.566-46.219c24.613,0,44.566,20.693,44.566,46.219
							c0,2.803-0.254,5.543-0.715,8.209l224.24-2.735l2.111-0.16c-1.603-4.451-2.522-9.229-2.522-14.233
							c0-23.236,18.836-42.073,42.073-42.073c23.236,0,42.073,18.837,42.073,42.073c0,2.765-0.284,5.463-0.794,8.079l50.06-5.524
							l17.757-22.631v-18.801L660.241,335.178z"/>
						<path style="fill:#2F2F6B;" d="M170.365,352.761c0,0,7.05-26.374,66.588-22.979c-32.119,10.967-49.092,24.285-49.092,24.285
							L170.365,352.761z"/>
						<path style="fill:#FFB727;" d="M178.494,353.368l9.367,0.699c0,0,16.973-13.318,49.092-24.285
							c-1.616-0.092-3.176-0.153-4.715-0.202C199.026,331.969,183.938,346.343,178.494,353.368z"/>
						<path style="fill:#2F2F6B;" d="M183.943,375.74c0,5.192-2.163,9.401-4.831,9.401s-4.831-4.209-4.831-9.401
							s2.163-9.401,4.831-9.401S183.943,370.548,183.943,375.74z"/>
						<path style="fill:#2F2F6B;" d="M160.46,347.327c-0.034,0.169-0.069,0.357-0.104,0.565c-0.009,0.055-0.019,0.104-0.028,0.161
							c-0.044,0.268-0.089,0.565-0.135,0.889c-0.011,0.074-0.021,0.156-0.032,0.232c-0.038,0.273-0.077,0.564-0.116,0.871
							c-0.012,0.098-0.025,0.193-0.037,0.294c-0.049,0.393-0.099,0.804-0.15,1.245c-0.004,0.038-0.009,0.08-0.013,0.119
							c-0.047,0.414-0.096,0.85-0.144,1.301c-0.013,0.119-0.026,0.24-0.038,0.361c-0.049,0.462-0.099,0.937-0.148,1.433
							c-0.004,0.039-0.008,0.076-0.012,0.116c-0.056,0.554-0.112,1.129-0.169,1.72c-0.01,0.101-0.02,0.205-0.029,0.307
							c-0.048,0.505-0.097,1.023-0.146,1.552c-0.011,0.121-0.022,0.24-0.033,0.362c-0.056,0.615-0.113,1.243-0.17,1.884
							c-0.007,0.073-0.013,0.148-0.02,0.222c-0.051,0.575-0.102,1.16-0.153,1.752c-0.013,0.152-0.026,0.304-0.039,0.458
							c-0.116,1.354-0.232,2.745-0.347,4.16c-0.01,0.127-0.021,0.255-0.031,0.383c-0.051,0.633-0.103,1.269-0.154,1.909
							c-0.006,0.08-0.013,0.16-0.019,0.24c-0.057,0.711-0.113,1.424-0.169,2.138c-0.012,0.16-0.025,0.32-0.037,0.48
							c-0.044,0.559-0.087,1.119-0.13,1.677c-0.015,0.198-0.031,0.397-0.046,0.595c-0.045,0.593-0.09,1.183-0.135,1.772
							c-0.015,0.196-0.03,0.391-0.044,0.586c-0.047,0.622-0.093,1.242-0.139,1.856c-0.009,0.123-0.018,0.247-0.027,0.37
							c-0.104,1.406-0.205,2.784-0.302,4.117c-0.012,0.16-0.023,0.317-0.034,0.475c-0.031,0.426-0.061,0.845-0.091,1.261
							c-0.019,0.265-0.038,0.531-0.057,0.792c-0.04,0.563-0.08,1.12-0.118,1.659c-0.012,0.163-0.023,0.319-0.034,0.479
							c-0.02,0.28-0.039,0.554-0.058,0.827l12.55,0.633l1.045-27.157l-7.28-0.799c1.579-9.379,5.322-15.391,5.322-15.391h-7.589
							c-0.065,0.144-0.161,0.304-0.202,0.435c-0.039,0.126-0.08,0.298-0.121,0.49C160.483,347.211,160.472,347.269,160.46,347.327z"
							/>
						<path style="fill:none;stroke:#FFFFFF;stroke-miterlimit:10;" d="M293.617,319.163"/>
						<path style="fill:#EECE10;" d="M286.654,345.275c0,0,95.619-16.58,331.395-33.88c21.65,7.768,20.258,11.249,20.258,11.249
							S348.106,336.223,286.654,345.275z"/>
						<path style="fill:#4C4C80;" d="M293.617,319.163c0,0,62.1-48.742,147.972-50.485c85.873-1.742,135.786,22.631,135.786,22.631
							l-25.416,11.49L293.617,319.163z"/>
						<path style="fill:#2F2F6B;" d="M577.376,291.309c0,0-48.076-23.446-130.997-22.684l5.238,40.53l100.342-6.356L577.376,291.309
							z"/>
						<path style="fill:#2F2F6B;" d="M293.617,319.162l136.837-8.668l3.236-41.522C351.935,273.391,293.617,319.162,293.617,319.162
							z"/>
						<path style="fill:#EECE10;" d="M254.97,328.335c0,0,335.114-28.322,407.011-31.456c-6.441,6.789-12.36,12.012-12.36,12.012
							L254.97,328.335z"/>
						<g>
							
								<ellipse transform="matrix(0.2298 -0.9732 0.9732 0.2298 -185.7187 547.8018)" style="fill:#515187;" cx="253.229" cy="391.234" rx="39.343" ry="39.343"/>
							
								<ellipse transform="matrix(0.4332 -0.9013 0.9013 0.4332 -209.087 449.9922)" style="fill:#2F2F6B;" cx="253.229" cy="391.234" rx="36.21" ry="36.21"/>
							
								<ellipse transform="matrix(0.4332 -0.9013 0.9013 0.4332 -209.087 449.9923)" style="fill:#FFFFFF;" cx="253.229" cy="391.234" rx="23.327" ry="23.327"/>
							<path style="fill:#515187;" d="M255.22,386.068l4.577-11.877c-2.04-0.787-4.249-1.236-6.567-1.236
								c-2.369,0-4.626,0.465-6.704,1.286l4.671,11.841c-1.676,0.662-2.945,2.111-3.361,3.895l-11.913-4.59
								c-0.621,1.838-0.973,3.8-0.973,5.848c0,2.455,0.492,4.793,1.369,6.931l11.85-4.674c0.635,1.422,1.854,2.507,3.349,2.995
								l-4.582,11.891c1.965,0.722,4.078,1.136,6.294,1.136c2.149,0,4.202-0.39,6.116-1.071l-4.683-11.87
								c1.56-0.419,2.84-1.49,3.536-2.915l11.91,4.589c0.898-2.16,1.399-4.527,1.399-7.013c0-2.063-0.358-4.039-0.988-5.889
								l-11.881,4.687C258.236,388.207,256.934,386.729,255.22,386.068z"/>
						</g>
						<g>
							
								<ellipse transform="matrix(0.2432 -0.97 0.97 0.2432 50.0499 839.6512)" style="fill:#515187;" cx="563.101" cy="387.752" rx="39.343" ry="39.343"/>
							
								<ellipse transform="matrix(0.2436 -0.9699 0.9699 0.2436 49.8727 839.4501)" style="fill:#2F2F6B;" cx="563.101" cy="387.752" rx="35.862" ry="35.862"/>
							
								<ellipse transform="matrix(0.1678 -0.9858 0.9858 0.1678 86.3684 877.8137)" style="fill:#FFFFFF;" cx="563.101" cy="387.752" rx="23.327" ry="23.327"/>
							<path style="fill:#515187;" d="M565.091,382.586l4.577-11.877c-2.04-0.787-4.249-1.236-6.567-1.236
								c-2.369,0-4.626,0.465-6.704,1.286l4.671,11.841c-1.676,0.662-2.945,2.111-3.361,3.895l-11.913-4.59
								c-0.621,1.838-0.973,3.8-0.973,5.848c0,2.455,0.492,4.793,1.369,6.931l11.849-4.674c0.635,1.421,1.854,2.507,3.349,2.995
								l-4.582,11.891c1.965,0.722,4.078,1.136,6.293,1.136c2.149,0,4.201-0.39,6.116-1.071l-4.683-11.87
								c1.56-0.419,2.839-1.49,3.536-2.915l11.91,4.589c0.898-2.16,1.399-4.527,1.399-7.013c0-2.063-0.358-4.039-0.988-5.889
								l-11.881,4.687C568.107,384.725,566.805,383.248,565.091,382.586z"/>
						</g>
						<path style="fill:#CE0000;" d="M661.079,316.732l-11.458-7.84l-49.44,3.92c0,0,38.473,10.703,45.958,16.97
							c10.271,0.174,14.563-4.768,14.563-4.768L661.079,316.732z"/>
						<path style="fill:#AC0000;" d="M649.621,308.892l-49.44,3.92c0,0,38.473,10.703,45.958,16.97L649.621,308.892z"/>
					</g>
					<path style="fill:#FFB727;" d="M672.427,367.906v-18.801l-0.39-0.446c-3.168,0.541-11.129,1.818-18.585,2.361
						c-2.437,4.526-3.83,21.935-3.83,21.935s12.471-0.661,22.714-4.932L672.427,367.906z"/>
					<path style="fill:#FFB727;" d="M314.855,397.153c0,0,167.603-42.258,210.991-45.262c-10.793,17.757-9.574,39.343-9.574,39.343
						L314.855,397.153"/>
					
						<text transform="matrix(1 0 0 1 378.0121 374.6387)" style="fill:#2F2F6B; font-family:'BebasNeueBold'; font-size:46.0357px; letter-spacing:1;">TAXI</text>
					<path style="fill:#FFEA24;" d="M194.04,375.74c0,0,11.616-45.603,63.019-41.989c47.525,3.342,50.485,57.482,50.485,57.482
						s-10.739-43.153-50.485-45.958C217.314,342.47,194.04,375.74,194.04,375.74z"/>
					<g>
						<path style="fill:#FFB727;" d="M306.039,318.113c0,0,10.998-13.4,19.467-13.4c2.781,2.781,1.517,22.408,1.138,22.834
							c-0.379,0.426-12.515,1.816-20.605-0.586C304.017,323.549,306.039,318.113,306.039,318.113z"/>
						<path style="fill:#EECE10;" d="M311.722,313.244c0,0,6.18-5.484,9.227-6.528c3.047-1.044,4.352,1.48,4.265,6.528
							c-0.087,5.049-0.522,11.664-0.522,11.664s-1.48-11.282-3.83-12.3C318.511,311.59,311.722,313.244,311.722,313.244z"/>
					</g>
					<path style="fill:#FFEA24;" d="M521.261,361.305c0,0,10.468-38.322,53.829-35.273c40.09,2.819,42.587,48.49,42.587,48.49
						s-9.059-36.402-42.587-38.769C541.563,333.387,521.261,361.305,521.261,361.305z"/>
				</g>
			</g>
			<g>
				<ellipse style="fill:#535EC1;" cx="143.29" cy="450.478" rx="94.625" ry="17.855"/>
				<g>
					<g>
						<path style="fill:#515187;" d="M123.546,345.516h-3v-8.483c0-0.85-0.609-1.563-1.448-1.694l-15.331-2.412
							c-0.623-0.092-1.248,0.081-1.723,0.488c-0.476,0.407-0.749,0.999-0.749,1.625v8.605h-3v-8.605
							c0-1.504,0.656-2.928,1.799-3.905c1.143-0.978,2.652-1.406,4.138-1.171l15.331,2.412c2.307,0.361,3.982,2.32,3.982,4.657
							V345.516z"/>
					</g>
					<g>
						<path style="fill:#FF6969;" d="M70.62,444.779l17.265,0.625l1.797-103.971l-18.201-0.376c-3.346,0-6.059,2.713-6.059,6.059
							v91.66C65.423,441.79,67.637,444.348,70.62,444.779z"/>
						<path style="fill:#FF4D4A;" d="M140.676,436.027l-50.352,9.483c-3.305,0.622-6.362-1.913-6.362-5.276V346.79
							c0-3.103,2.624-5.56,5.72-5.357l50.352,3.308c2.822,0.185,5.017,2.529,5.017,5.357v80.653
							C145.051,433.333,143.214,435.549,140.676,436.027z"/>
						<path style="fill:#B73434;" d="M140.035,344.741l-10.132-0.666c1.365,30.811,1.359,62.137,7.245,92.616l3.529-0.665
							c2.537-0.478,4.375-2.694,4.375-5.276v-80.653C145.051,347.27,142.857,344.926,140.035,344.741z"/>
					</g>
				</g>
				<g>
					<g>
						<g>
							<g>
								<path style="fill:#FFB28C;" d="M101.144,162.645c0.912,1.846,1.512,1.254,3.33,11.738c0.172,0.992,0.416,2.332,0.72,3.942
									h12.974c-2.117-6.151-3.831-10.944-4.321-11.825c-1.708-3.07-1.317-5.041-0.09-6.233c1.454-1.852,4.022-4.216,4.536-5.519
									c0.697-1.765-3.499-7.383-3.499-7.383c-2.973-0.276-11.464,3.97-12.966,5.796c-1.365,1.66-1.954,3.321-1.954,3.321
									s1.045-0.368,1.909-0.656C98.764,158.135,100.232,160.799,101.144,162.645z"/>
								<path style="fill:#F9A580;" d="M118.293,154.748c0.696-1.764-3.499-7.383-3.499-7.383
									c-2.973-0.276-11.464,3.97-12.966,5.796c-0.251,0.305-0.467,0.607-0.667,0.902C102.869,156.687,104.95,158,109,158
									c-4.975,7.463-0.325,14.237,3.689,20.325h5.479c-2.117-6.151-3.831-10.943-4.321-11.825c-1.708-3.07-1.317-5.041-0.09-6.233
									C115.211,158.415,117.779,156.051,118.293,154.748z"/>
								<path style="fill:#FFFFDE;" d="M101.784,155.826L101.784,155.826c0.531-0.177,0.995-0.325,1.104-0.338
									C103.715,155.387,103.051,154.898,101.784,155.826z"/>
								<path style="fill:#FFE7C6;" d="M131.638,211.114c-2.977-8.113-14.069-37.764-16.534-44.006l-13.706,5.174
									c0.157,0.832,0.322,1.732,0.501,2.767c0.814,4.693,9.832,34.36,13.297,46.365c0,0,4.135,8.3,11.919,4.875
									C133.364,223.539,131.638,211.114,131.638,211.114z"/>
								<g>
									<polygon style="fill:#515187;" points="115.021,117.715 97.626,117.715 95.954,118.383 103.124,156.864 118.371,156.454 
										120.043,155.786 									"/>
									<polygon style="fill:#2F2F6B;" points="113.349,118.445 95.954,118.445 101.452,157.594 118.371,156.516 									"/>
								</g>
								<path style="fill:#FFB28C;" d="M102.381,165.031c0,0-1.937-3.782-3.952-6.239c-2.015-2.457-2.895-6.334-2.895-6.334
									l-0.437-11.789l7.179-4.089c0,0,5.577,2.254,6.213,2.638c0.635,0.384,1.562,3.67,0.233,3.921
									c-1.329,0.251-5.524-1.727-5.524-1.727s4.858,2.625,5.62,3.21c0.762,0.584,0.773,3.131-0.756,3.199
									c-1.528,0.068-5.044-2.056-5.044-2.056s5.078,2.82,5.521,3.522c0.444,0.702-0.536,2.836-2.562,1.984
									c-2.025-0.852-2.477-1.125-2.477-1.125s2.87,2.115,3.271,2.786c0.4,0.671-1.278,2.321-2.948,1.188
									c-1.67-1.133-0.275,5.07-0.366,7.989C103.367,165.029,102.381,165.031,102.381,165.031z"/>
							</g>
							<path style="fill:#FFE7C6;" d="M144.667,144.266c0,0-7.126,1.838-10.626,12.598c-3.5,10.761-13.998,49.803-13.998,49.803
								l8.639,18.6c0,0,9.983-14.017,12.983-26.767S144.667,144.266,144.667,144.266z"/>
						</g>
						<path style="fill:#FFE7C6;" d="M158.773,141.137c0,0-11.773,2.387-14.107,3.129c-0.318,9.652-20.658,79.135-10.182,120.599
							c4.455,3.5,60.775,7.898,64.911,1.216c15.191-38.632,11.692-116.638,11.692-116.638l-15.065-6.714
							C185.025,148.243,158.773,141.137,158.773,141.137z"/>
						<path style="fill:#FFB28C;" d="M190.805,100.832c0,0-6.258,32.456-1.697,39.35c3.606,2.227,6.916,2.546,6.916,2.546
							l-9.588,13.859c-7.162,10.352-23.25,6.998-25.678-5.354l-1.984-10.095c0,0,5.621,0.848,8.167-0.742
							c2.546-1.591,4.455-10.925,3.898-17.607C170.281,116.106,184.759,99.878,190.805,100.832z"/>
						<g>
							<g>
								<path style="fill:#FFB28C;" d="M137.454,299.597c0,0,0.917,24.063,1.666,34.789c0.506,7.248,9.577,94.397,9.577,101.822
									c-5.515,8.273-9.577,8.061-9.577,8.061l18.911,1.061c0,0-0.424-5.94-1.273-10.606c-0.848-4.667-1.061-16.334,1.273-23.546
									c2.333-7.212,4.667-29.062-0.853-44.705c-1.061-5.091,3.042-20.551,2.762-62.34
									C158.175,289.918,137.454,299.597,137.454,299.597z"/>
								<g>
									<path style="fill:#F79E00;" d="M158.827,451.163c0,0-17.182,5.728-29.592,5.568c-3.818-0.318-6.046-3.818-6.046-3.818
										s19.442-12.171,21.319-12.887c1.273,2.705,9.492,2.889,12.94-0.624C160.258,441.776,158.827,451.163,158.827,451.163z"/>
									<path style="fill:#D68400;" d="M132.5,447.134c5.281-3.251,11.029-6.735,12.007-7.108c0.544,1.157,2.36,1.85,4.529,1.993
										l-12.952,7.35C135.196,448.236,134.025,447.414,132.5,447.134z"/>
									<path style="fill:#F4F4F4;" d="M132.5,447.134c3.861,0.708,5.486,4.859,5.86,8.901c-3.116,0.451-6.249,0.733-9.126,0.696
										c-3.818-0.318-6.046-3.818-6.046-3.818S127.648,450.122,132.5,447.134z"/>
									<path style="fill:#F2F2F2;" d="M125.325,451.58c1.024,1.013,2.683,2.231,4.864,2.413
										c10.946,0.14,25.599-4.297,28.904-5.346c-0.108,1.475-0.266,2.517-0.266,2.517s-17.182,5.728-29.592,5.568
										c-3.818-0.318-6.046-3.818-6.046-3.818S124.013,452.397,125.325,451.58z"/>
								</g>
							</g>
							<g>
								<path style="fill:#FFB28C;" d="M177.241,409.161h12.162c-1.312,13.785-2.271,24.632-2.271,27.046
									c5.515,8.273,9.577,8.061,9.577,8.061l-18.911,1.061c0,0,0.424-5.94,1.273-10.606c0.848-4.667,1.061-16.334-1.273-23.546
									C177.61,410.599,177.424,409.917,177.241,409.161z"/>
								<g>
									<path style="fill:#F79E00;" d="M177.002,451.163c0,0,17.182,5.728,29.592,5.568c3.818-0.318,6.046-3.818,6.046-3.818
										s-19.442-12.171-21.319-12.887c-1.273,2.705-9.492,2.889-12.94-0.624C175.57,441.776,177.002,451.163,177.002,451.163z"/>
									<path style="fill:#D68400;" d="M203.328,447.134c-5.281-3.251-11.029-6.735-12.007-7.108
										c-0.544,1.157-2.36,1.85-4.529,1.993l12.953,7.35C200.632,448.236,201.803,447.414,203.328,447.134z"/>
									<path style="fill:#F4F4F4;" d="M203.328,447.134c-3.861,0.708-5.486,4.859-5.86,8.901c3.116,0.451,6.249,0.733,9.126,0.696
										c3.818-0.318,6.046-3.818,6.046-3.818S208.181,450.122,203.328,447.134z"/>
									<path style="fill:#F2F2F2;" d="M210.503,451.58c-1.024,1.013-2.683,2.231-4.864,2.413
										c-10.946,0.14-25.599-4.297-28.904-5.346c0.108,1.475,0.266,2.517,0.266,2.517s17.182,5.728,29.592,5.568
										c3.818-0.318,6.046-3.818,6.046-3.818S211.816,452.397,210.503,451.58z"/>
								</g>
							</g>
							<path style="fill:#62469C;" d="M202.697,256.1l-69.767,1.063c0,0-0.221,27.357,1.576,44.764
								c0.649,9.534,2.426,25.165,2.949,32.655c0.382,5.464,5.395,70.025,7.955,97.918c3.181,0.187,9.445,0.237,12.422-0.417
								c0.296-2.521,0.275-18.846,0.941-20.907c2.333-7.212,2.988-30.349,0.159-45.608c-1.061-5.091,0.53-34.683,5.174-65.573v0
								l1.984-10.157l2.76,18.243c0,0,0.038,0.017,0.095,0.043c4.237,26.469,8.81,53.321,7.951,57.444
								c-2.828,15.259-2.174,38.395,0.159,45.608c0.667,2.061,0.565,17.635,0.861,20.157c2.977,0.654,7.285,0.437,10.466,0.25
								c2.561-27.892,7.945-91.733,8.327-97.197c0.314-4.496,1.85-12.078,1.843-20.018c0,0,1.069-9.913,1.069-9.913
								C200.893,282.088,202.697,256.1,202.697,256.1z"/>
							<path style="fill:#424EC1;" d="M202.697,256.1l-69.767,1.063c0,0-0.221,27.357,1.576,44.764
								c0.649,9.534,2.426,25.165,2.949,32.655c0.382,5.464,5.395,70.025,7.955,97.918c3.181,0.187,9.445,0.237,12.422-0.417
								c0.296-2.521,0.275-18.846,0.941-20.907c2.333-7.212,2.988-30.349,0.159-45.608c-1.061-5.091,0.53-34.683,5.174-65.573v0
								l1.984-10.157l2.76,18.243c0,0,0.038,0.017,0.095,0.043c4.237,26.469,8.81,53.321,7.951,57.444
								c-2.828,15.259-2.174,38.395,0.159,45.608c0.667,2.061,0.565,17.635,0.861,20.157c2.977,0.654,7.285,0.437,10.466,0.25
								c2.561-27.892,7.945-91.733,8.327-97.197c0.314-4.496,1.85-12.078,1.843-20.018c0,0,1.069-9.913,1.069-9.913
								C200.893,282.088,202.697,256.1,202.697,256.1z"/>
							<path style="fill:#3846C1;" d="M149.715,259.555c0,0-4.549,46.445-5.048,65.353c-0.44,16.677,3.031,90.51,3.857,107.702
								c3.201,0.053,7.132-0.048,9.309-0.526c0.296-2.521,0.275-18.846,0.941-20.907c2.333-7.212,2.988-30.349,0.159-45.608
								c-1.061-5.091,0.53-34.683,5.174-65.573v0l1.984-10.157c-6.409-10.494-7.258-26.98-7.258-26.98L149.715,259.555z"/>
							<path style="fill:#3846C1;" d="M185.647,431.721c0.96-0.037,1.888-0.088,2.734-0.137c2.561-27.892,7.945-91.733,8.327-97.197
								c0.314-4.496,1.85-12.078,1.843-20.018c0,0,1.069-9.913,1.069-9.913c1.273-22.366,3.077-48.354,3.077-48.354l-20.54,0.313
								c2.857,16.483,9.845,61.23,7.47,92.253C187.15,381.005,185.968,419.865,185.647,431.721z"/>
						</g>
					</g>
					<g>
						<g>
							<g>
								
									<rect x="171.299" y="198.491" transform="matrix(0.9985 -0.0543 0.0543 0.9985 -10.8523 9.6225)" style="fill:#FFAD00;" width="0.999" height="12.393"/>
							</g>
							<g>
								<rect x="168.54" y="198.5" style="fill:#FFAD00;" width="1" height="12.375"/>
							</g>
							<g>
								
									<rect x="165.9" y="199.072" transform="matrix(0.998 -0.0635 0.0635 0.998 -12.6759 10.9759)" style="fill:#FFAD00;" width="1" height="11.815"/>
							</g>
							<g>
								
									<rect x="162.416" y="199.256" transform="matrix(0.9975 -0.0705 0.0705 0.9975 -14.0528 11.9904)" style="fill:#FFAD00;" width="1" height="11.821"/>
							</g>
							<g>
								<rect x="159.54" y="199.083" style="fill:#FFAD00;" width="1" height="11.792"/>
							</g>
							<g>
								
									<rect x="150.795" y="204.667" transform="matrix(0.0342 -0.9994 0.9994 0.0342 -53.5324 354.9371)" style="fill:#FFAD00;" width="12.174" height="1"/>
							</g>
						</g>
						<g>
							<g>
								
									<rect x="189.904" y="210.713" transform="matrix(0.0258 -0.9997 0.9997 0.0258 -20.0988 401.8018)" style="fill:#FFAD00;" width="12.393" height="1"/>
							</g>
							<g>
								
									<rect x="187.164" y="210.492" transform="matrix(0.08 -0.9968 0.9968 0.08 -32.4328 386.8444)" style="fill:#FFAD00;" width="12.375" height="1"/>
							</g>
							<g>
								
									<rect x="184.789" y="210.572" transform="matrix(0.0165 -0.9999 0.9999 0.0165 -23.5021 398.2495)" style="fill:#FFAD00;" width="11.815" height="1"/>
							</g>
							<g>
								
									<rect x="181.297" y="210.48" transform="matrix(0.0095 -1 1 0.0095 -25.5478 396.1676)" style="fill:#FFAD00;" width="11.821" height="1"/>
							</g>
							<g>
								
									<rect x="178.461" y="210.063" transform="matrix(0.08 -0.9968 0.9968 0.08 -40.2801 377.484)" style="fill:#FFAD00;" width="11.792" height="1"/>
							</g>
							<g>
								
									<rect x="175.106" y="209.998" transform="matrix(0.1139 -0.9935 0.9935 0.1139 -48.5793 366.5255)" style="fill:#FFAD00;" width="12.174" height="1"/>
							</g>
						</g>
						<path style="fill:#FFAD00;" d="M173.431,147.176l-13.621-2.974c-1.61,4.167-3.027,9.523-3.856,16.262
							c-2.524,20.5,0,40.167,0,40.167l16.809-1C172.763,199.631,169.071,166.008,173.431,147.176z"/>
						<path style="fill:#F79E00;" d="M162.081,126.967c0,0-7.229,6.565-7.249,15.532c-0.049,21.252,39.871,19.537,45.769,1.436
							c1.064-7.935-8.154-18.267-8.154-18.267l-5.48,5.23c0,0,3.277,8.102-4.596,10.935c-7.873,2.833-13.623-0.583-13.789-2.75
							c-0.167-2.167,0.95-4.35,0.95-4.35L162.081,126.967z"/>
						<path style="fill:#FFAD00;" d="M175.096,142.832c0,0,7.064-4.719,9.402-4.665c2.338,0.053,10.285,7.833,12.809,28.333
							c2.524,20.5,0,40.167,0,40.167l-16.809-1C180.499,205.667,186.194,153.831,175.096,142.832z"/>
					</g>
					<g>
						<path style="fill:#FFB28C;" d="M157.529,105.649c0,0-1.738-8.857-6.94-7.231c-5.202,1.626-0.781,10.242,2.536,11.868
							c3.317,1.626,4.807,0,4.807,0L157.529,105.649z"/>
						<path style="fill:#F9A580;" d="M196.684,105.649c0,0,1.738-8.857,6.94-7.231c5.202,1.626,0.781,10.242-2.536,11.868
							c-3.317,1.626-4.807,0-4.807,0L196.684,105.649z"/>
						<path style="fill:#FFB28C;" d="M193.508,76.258c0,0,4.633,12.193,2.683,25.118c-0.192,4.605-0.842,13.287-1.049,18.204
							c-0.105,2.501-1.157,4.877-2.974,6.598c-3.204,3.034-8.141,6.657-10.664,8.455c-1.029,0.733-2.258,1.127-3.521,1.127h-5.187
							c-1.852,0-3.602-0.847-4.753-2.299c-1.93-2.435-4.997-6.258-7.136-8.706c-1.288-1.473-2.104-3.303-2.322-5.248
							c-0.512-4.577-0.708-12.108-1.412-15.45c-0.975-4.633,0.732-24.874,4.146-29.019S193.508,76.258,193.508,76.258z"/>
						<path style="fill:#F9A580;" d="M193.508,76.258c0,0-28.775-5.365-32.189-1.219c-1.511,1.835-2.686,6.822-3.444,12.213
							C160.716,87.169,164,85.242,164,82c0,2,3,2,3,2c15,3,29-1,25,18c-1.915,9.335-3.137,18.554-3.938,27.701
							c1.466-1.173,2.906-2.39,4.105-3.524c1.818-1.721,2.869-4.097,2.974-6.598c0.207-4.917,0.857-13.599,1.049-18.204
							C198.141,88.451,193.508,76.258,193.508,76.258z"/>
						<path style="fill:#FFC3A9;" d="M172.292,97.718c0,0,2.29,1.991,1.165,7.449c-1.125,5.458-0.646,8.792-0.427,9.333
							s5.515-0.028,6.378-0.764c-0.212,0.454-1.664,2.67-8.383,3.358c0.188-1.422,0.953-8.688,1.234-10.188
							C172.54,105.406,174.356,100.539,172.292,97.718z"/>
						<g>
							<path style="fill:#4C4C80;" d="M185.704,101.619c0,1.212,0.6,2.195,1.341,2.195c0.741,0,1.341-0.983,1.341-2.195
								c0-1.212-0.6-2.195-1.341-2.195C186.305,99.425,185.704,100.407,185.704,101.619z"/>
							<path style="fill:#FFFFFF;" d="M186.741,100.781c0,0.328,0.191,0.594,0.427,0.594s0.427-0.266,0.427-0.594
								s-0.191-0.594-0.427-0.594S186.741,100.453,186.741,100.781z"/>
						</g>
						<g>
							<ellipse style="fill:#4C4C80;" cx="165.785" cy="101.619" rx="1.341" ry="2.195"/>
							<path style="fill:#FFFFFF;" d="M165.48,100.781c0,0.328,0.191,0.594,0.427,0.594s0.427-0.266,0.427-0.594
								s-0.191-0.594-0.427-0.594S165.48,100.453,165.48,100.781z"/>
						</g>
						<path style="fill:#BD7110;" d="M168.635,96.96c0,0-5.633-2.02-8.495,0.31c2.077-3.312,5.793-4.276,9.137-3.153
							C172.622,95.241,170.636,97.49,168.635,96.96z"/>
						<path style="fill:#BD7110;" d="M184.732,96.809c0,0,5.732-1.718,8.466,0.761c-1.898-3.417-5.558-4.578-8.957-3.633
							C180.842,94.881,182.706,97.232,184.732,96.809z"/>
						<path style="fill:#BD7110;" d="M172.292,97.718c0.887,1.407,0.988,3.137,0.747,4.723c-0.116,0.801-0.388,1.574-0.572,2.389
							c-0.196,0.805-0.342,1.619-0.477,2.433c-0.27,1.629-0.487,3.264-0.68,4.901c-0.174,1.64-0.324,3.279-0.45,4.924l-0.02,0.262
							l0.257-0.032c1.647-0.204,3.26-0.571,4.827-1.108c0.78-0.273,1.546-0.609,2.238-1.072c0.676-0.451,1.343-1.095,1.448-1.934
							c-0.179,0.821-0.852,1.39-1.536,1.794c-0.702,0.406-1.466,0.694-2.24,0.941c-0.777,0.241-1.571,0.429-2.371,0.582
							c-0.8,0.148-1.609,0.28-2.411,0.371l0.236,0.23c0.144-1.635,0.316-3.272,0.507-4.904c0.173-1.634,0.369-3.266,0.619-4.887
							c0.127-0.81,0.262-1.619,0.42-2.421c0.074-0.404,0.178-0.793,0.264-1.199l0.133-0.612l0.093-0.619
							c0.099-0.828,0.098-1.674-0.069-2.492C173.09,99.175,172.805,98.368,172.292,97.718z"/>
						<path style="fill:#BD7110;" d="M195.329,108.767c0,0-0.805,4.883-1.537,5.411c-0.732,0.528-7.316,1.179-6.544,4.796
							c0.772,3.617-1.727,9.958-4.837,11.665c-3.109,1.707-8.291-1.402-8.291-1.402s-3.353,3.279-5.731,1.914
							c-2.378-1.365-4.478-6.304-3.946-9.961c0.532-3.658-0.748-6.828-3.004-7.072c-2.256-0.244-4.122-8.035-4.17-9.504
							c-1.06,0.067-0.96,1.091-0.96,1.091s0.222,2.804,0.222,4.846c0,2.042-0.152,10.699,3.932,15.272
							c4.085,4.572,5.975,10.12,11.949,10.364c5.975,0.244,9.511,0.549,12.193-2.195c2.682-2.743,10.227-9.084,10.722-11.278
							c0.495-2.195,1.974-12.476,1.979-13.92C197.311,107.696,195.329,108.767,195.329,108.767z"/>
						<path style="fill:#FFFFFF;" d="M182.372,119.746c0,0-9.348,2.028-14.55,0.73C172.942,125.843,178.063,124.705,182.372,119.746
							z"/>
						<path style="fill:#B2630D;" d="M190.256,79.509c0,0-8.942,3.252-14.306,2.601c-5.365-0.65-11.868-3.577-13.006-3.739
							s0.164,8.329-2.601,9.754c-2.765,1.426-3.678,14.625-2.814,18.286c-0.681,0.004-1.169,0.329-1.169,0.329
							s-0.041-5.273-2.019-7.513c-0.975-9.023-3.212-13.378,2.559-25.083c5.771-11.705,27.991-11.201,36.445-4.877
							c8.454,6.323,9.389,21.764,6.625,29.893c-2.113,1.301-2.743,10.628-2.743,10.628h-2.012c0,0,1.006-8.84,1.067-11.157
							s0.701-7.804-2.53-11.461C190.52,83.513,190.256,79.509,190.256,79.509z"/>
						<path style="fill:#BD7110;" d="M190.256,79.509c0,0-8.942,3.252-14.306,2.601c-5.365-0.65-11.868-3.577-13.006-3.739
							s0.164,8.329-2.601,9.754c-2.765,1.426-3.678,14.625-2.814,18.286c-0.681,0.004-1.169,0.329-1.169,0.329
							s-0.041-5.273-2.019-7.513c-0.975-9.023-3.212-13.378,2.559-25.083c5.771-11.705,24.646-8.801,33.1-2.478
							c7.921,5.925,10.973,13.137,9.846,22.881c-0.127,1.095-0.428,2.165-0.872,3.175c-2.225,5.062-1.747,12.065-1.747,12.065
							h-2.012c0,0,1.006-8.84,1.067-11.157s0.701-7.804-2.53-11.461C190.52,83.513,190.256,79.509,190.256,79.509z"/>
					</g>
					<polygon style="fill:#666666;" points="202.232,262.859 133.169,262.859 132.564,254.633 203.471,254.633 					"/>
					<rect x="148.014" y="253.237" style="fill:#3846C1;" width="3.402" height="12.634"/>
					<rect x="185.237" y="253.237" style="fill:#3846C1;" width="3.401" height="12.634"/>
					<rect x="161.037" y="252.46" style="fill:#CEC3B3;" width="13.023" height="12.343"/>
					<path style="fill:#FFB28C;" d="M197.101,265.872l-4.187,5.928l5.248,10.496c0,0,4.923-9.233,6.025-9.913
						C202.083,266.26,197.101,265.872,197.101,265.872z"/>
					<path style="fill:#FFE7C6;" d="M230.274,195.039c0,0,7.249,27.584,7.637,32.638c0.389,5.054-32.702,46.407-32.702,46.407
						l-9.186-8.212c0,0,20.896-37.028,22.84-41.693c-8.595-18.636-15.603-40.137-17.714-46.892
						c-2.112-6.755,5.663-24.054,9.939-27.844C222.362,163.534,230.274,195.039,230.274,195.039z"/>
				</g>
			</g>
		</g>
	</g>
</g>
</svg>
